M48
; DRILL file {KiCad 9.0.5} date 2025-11-20T08:04:23+0700
; FORMAT={-:-/ absolute / metric / decimal}
; #@! TF.CreationDate,2025-11-20T08:04:23+07:00
; #@! TF.GenerationSoftware,Kicad,Pcbnew,9.0.5
; #@! TF.FileFunction,Plated,1,2,PTH
FMAT,2
METRIC
; #@! TA.AperFunction,Plated,PTH,ComponentDrill
T1C0.200
; #@! TA.AperFunction,Plated,PTH,ViaDrill
T2C0.300
; #@! TA.AperFunction,Plated,PTH,ComponentDrill
T3C0.750
; #@! TA.AperFunction,Plated,PTH,ComponentDrill
T4C0.800
%
G90
G05
T1
X179.045Y-90.992
X179.045Y-92.517
X179.808Y-90.23
X179.808Y-91.755
X179.808Y-93.28
X180.57Y-90.992
X180.57Y-92.517
X181.332Y-90.23
X181.332Y-91.755
X181.332Y-93.28
X182.095Y-90.992
X182.095Y-92.517
T2
X158.25Y-88.425
X158.25Y-115.45
X158.338Y-131.162
X158.375Y-87.875
X158.762Y-87.487
X158.862Y-130.637
X159.425Y-98.25
X159.45Y-112.375
X159.5Y-119.35
X160.35Y-110.225
X160.825Y-122.4
X161.0Y-110.25
X162.55Y-114.75
X162.6Y-95.15
X163.5Y-122.475
X164.425Y-128.425
X164.55Y-87.35
X165.775Y-95.6
X166.6Y-110.75
X167.05Y-90.575
X168.375Y-114.34
X168.862Y-90.237
X169.65Y-107.8
X169.775Y-86.4
X169.9Y-93.525
X170.325Y-100.9
X170.325Y-102.05
X170.375Y-98.775
X170.55Y-109.4
X171.385Y-114.34
X172.275Y-117.9
X172.55Y-103.2
X172.55Y-105.025
X173.4Y-130.65
X173.775Y-114.575
X174.4Y-88.2
X174.412Y-102.412
X174.575Y-132.05
X175.375Y-115.825
X175.475Y-111.575
X175.9Y-111.05
X176.275Y-111.6
X176.725Y-111.075
X176.825Y-106.225
X177.125Y-133.3
X177.225Y-111.6
X177.525Y-108.475
X177.725Y-110.9
X178.05Y-111.575
X178.375Y-110.6
X178.9Y-115.575
X178.975Y-122.075
X180.975Y-115.175
X181.25Y-108.575
X181.625Y-124.3
X183.5Y-105.525
X183.8Y-88.975
X184.45Y-114.225
X184.65Y-109.6
X184.65Y-110.325
X184.675Y-111.1
X184.675Y-111.85
X184.675Y-112.5
X185.25Y-114.225
X185.275Y-90.5
X185.3Y-92.275
X185.425Y-111.85
X185.425Y-112.5
X185.45Y-111.075
X185.45Y-115.025
X185.475Y-109.625
X185.475Y-110.35
X185.475Y-115.775
X185.5Y-116.6
X186.875Y-92.15
X187.15Y-133.3
X187.601Y-89.949
X187.9Y-109.575
X188.45Y-99.75
X192.55Y-90.725
X194.2Y-88.925
X195.775Y-133.3
X196.35Y-96.9
X196.35Y-105.0
X196.35Y-107.85
X198.95Y-119.1
X199.975Y-133.3
X200.65Y-133.3
X201.325Y-133.3
X203.7Y-87.375
X204.112Y-87.787
X204.125Y-88.3
T3
X171.4Y-132.0
X173.4Y-132.0
T4
X167.375Y-96.55
X167.375Y-98.55
X167.375Y-100.55
X167.375Y-102.55
X167.375Y-104.55
M30
