%TF.GenerationSoftware,KiCad,Pcbnew,9.0.5*%
%TF.CreationDate,2025-11-20T08:04:16+07:00*%
%TF.ProjectId,esp32_flight_controller_PCB,65737033-325f-4666-9c69-6768745f636f,rev?*%
%TF.SameCoordinates,Original*%
%TF.FileFunction,Soldermask,Top*%
%TF.FilePolarity,Negative*%
%FSLAX46Y46*%
G04 Gerber Fmt 4.6, Leading zero omitted, Abs format (unit mm)*
G04 Created by KiCad (PCBNEW 9.0.5) date 2025-11-20 08:04:16*
%MOMM*%
%LPD*%
G01*
G04 APERTURE LIST*
G04 Aperture macros list*
%AMRoundRect*
0 Rectangle with rounded corners*
0 $1 Rounding radius*
0 $2 $3 $4 $5 $6 $7 $8 $9 X,Y pos of 4 corners*
0 Add a 4 corners polygon primitive as box body*
4,1,4,$2,$3,$4,$5,$6,$7,$8,$9,$2,$3,0*
0 Add four circle primitives for the rounded corners*
1,1,$1+$1,$2,$3*
1,1,$1+$1,$4,$5*
1,1,$1+$1,$6,$7*
1,1,$1+$1,$8,$9*
0 Add four rect primitives between the rounded corners*
20,1,$1+$1,$2,$3,$4,$5,0*
20,1,$1+$1,$4,$5,$6,$7,0*
20,1,$1+$1,$6,$7,$8,$9,0*
20,1,$1+$1,$8,$9,$2,$3,0*%
G04 Aperture macros list end*
%ADD10R,1.500000X1.500000*%
%ADD11RoundRect,0.250000X-0.350000X0.850000X-0.350000X-0.850000X0.350000X-0.850000X0.350000X0.850000X0*%
%ADD12RoundRect,0.249997X-2.650003X2.950003X-2.650003X-2.950003X2.650003X-2.950003X2.650003X2.950003X0*%
%ADD13RoundRect,0.200000X-0.275000X0.200000X-0.275000X-0.200000X0.275000X-0.200000X0.275000X0.200000X0*%
%ADD14RoundRect,0.112500X0.112500X-0.187500X0.112500X0.187500X-0.112500X0.187500X-0.112500X-0.187500X0*%
%ADD15RoundRect,0.250000X0.475000X-0.250000X0.475000X0.250000X-0.475000X0.250000X-0.475000X-0.250000X0*%
%ADD16RoundRect,0.200000X0.200000X0.275000X-0.200000X0.275000X-0.200000X-0.275000X0.200000X-0.275000X0*%
%ADD17RoundRect,0.150000X0.150000X-0.587500X0.150000X0.587500X-0.150000X0.587500X-0.150000X-0.587500X0*%
%ADD18RoundRect,0.200000X-0.200000X-0.275000X0.200000X-0.275000X0.200000X0.275000X-0.200000X0.275000X0*%
%ADD19RoundRect,0.250000X-0.350000X-0.625000X0.350000X-0.625000X0.350000X0.625000X-0.350000X0.625000X0*%
%ADD20O,1.200000X1.750000*%
%ADD21RoundRect,0.225000X1.096016X-0.353553X-0.353553X1.096016X-1.096016X0.353553X0.353553X-1.096016X0*%
%ADD22RoundRect,0.250000X-0.325000X-0.650000X0.325000X-0.650000X0.325000X0.650000X-0.325000X0.650000X0*%
%ADD23RoundRect,0.150000X0.512500X0.150000X-0.512500X0.150000X-0.512500X-0.150000X0.512500X-0.150000X0*%
%ADD24R,1.350000X1.350000*%
%ADD25C,1.350000*%
%ADD26RoundRect,0.225000X0.250000X-0.225000X0.250000X0.225000X-0.250000X0.225000X-0.250000X-0.225000X0*%
%ADD27RoundRect,0.218750X0.256250X-0.218750X0.256250X0.218750X-0.256250X0.218750X-0.256250X-0.218750X0*%
%ADD28RoundRect,0.225000X0.225000X0.250000X-0.225000X0.250000X-0.225000X-0.250000X0.225000X-0.250000X0*%
%ADD29RoundRect,0.225000X-0.250000X0.225000X-0.250000X-0.225000X0.250000X-0.225000X0.250000X0.225000X0*%
%ADD30RoundRect,0.075000X-0.350000X-0.075000X0.350000X-0.075000X0.350000X0.075000X-0.350000X0.075000X0*%
%ADD31RoundRect,0.075000X0.075000X-0.350000X0.075000X0.350000X-0.075000X0.350000X-0.075000X-0.350000X0*%
%ADD32RoundRect,0.225000X-0.225000X-0.250000X0.225000X-0.250000X0.225000X0.250000X-0.225000X0.250000X0*%
%ADD33RoundRect,0.218750X0.218750X0.256250X-0.218750X0.256250X-0.218750X-0.256250X0.218750X-0.256250X0*%
%ADD34RoundRect,0.250001X-0.499999X-0.999999X0.499999X-0.999999X0.499999X0.999999X-0.499999X0.999999X0*%
%ADD35RoundRect,0.150000X-0.150000X0.587500X-0.150000X-0.587500X0.150000X-0.587500X0.150000X0.587500X0*%
%ADD36RoundRect,0.112500X-0.112500X0.187500X-0.112500X-0.187500X0.112500X-0.187500X0.112500X0.187500X0*%
%ADD37RoundRect,0.300000X-0.353553X-1.343503X1.343503X0.353553X0.353553X1.343503X-1.343503X-0.353553X0*%
%ADD38RoundRect,0.112500X-0.187500X-0.112500X0.187500X-0.112500X0.187500X0.112500X-0.187500X0.112500X0*%
%ADD39RoundRect,0.225000X-0.353553X-1.096016X1.096016X0.353553X0.353553X1.096016X-1.096016X-0.353553X0*%
%ADD40R,0.350000X0.500000*%
%ADD41R,1.500000X0.900000*%
%ADD42R,0.900000X1.500000*%
%ADD43C,0.600000*%
%ADD44R,4.200000X4.200000*%
%ADD45RoundRect,0.250000X-0.650000X0.325000X-0.650000X-0.325000X0.650000X-0.325000X0.650000X0.325000X0*%
G04 APERTURE END LIST*
D10*
%TO.C,TX2*%
X194300000Y-97625000D03*
%TD*%
D11*
%TO.C,U2*%
X171405000Y-120000000D03*
X169125000Y-120000000D03*
D12*
X169125000Y-126300000D03*
D11*
X166845000Y-120000000D03*
%TD*%
D13*
%TO.C,R16*%
X184100000Y-123850000D03*
X184100000Y-125500000D03*
%TD*%
D14*
%TO.C,D7*%
X184100000Y-130000000D03*
X184100000Y-127900000D03*
%TD*%
D15*
%TO.C,C10*%
X168375000Y-116240000D03*
X168375000Y-114340000D03*
%TD*%
D16*
%TO.C,R7*%
X189550000Y-105725000D03*
X187900000Y-105725000D03*
%TD*%
D17*
%TO.C,Q2*%
X199975000Y-91050000D03*
X201875000Y-91050000D03*
X200925000Y-89175000D03*
%TD*%
D18*
%TO.C,R8*%
X160725000Y-121050000D03*
X162375000Y-121050000D03*
%TD*%
D19*
%TO.C,J6*%
X171400000Y-132000000D03*
D20*
X173400000Y-132000000D03*
%TD*%
D21*
%TO.C,J1*%
X158525000Y-87700000D03*
X161353428Y-84871572D03*
%TD*%
D22*
%TO.C,C13*%
X191000000Y-123550000D03*
X193950000Y-123550000D03*
%TD*%
D23*
%TO.C,J7*%
X181625000Y-125250000D03*
X181625000Y-124300000D03*
X181625000Y-123350000D03*
X179350000Y-123350000D03*
X179350000Y-124300000D03*
X179350000Y-125250000D03*
%TD*%
D24*
%TO.C,J3*%
X167375000Y-96550000D03*
D25*
X167375000Y-98550000D03*
X167375000Y-100550000D03*
X167375000Y-102550000D03*
X167375000Y-104550000D03*
%TD*%
D18*
%TO.C,R3*%
X199975000Y-96800000D03*
X201625000Y-96800000D03*
%TD*%
%TO.C,R14*%
X203125000Y-99350000D03*
X204775000Y-99350000D03*
%TD*%
D10*
%TO.C,TP10*%
X161075000Y-100600000D03*
%TD*%
D16*
%TO.C,R10*%
X162375000Y-123800000D03*
X160725000Y-123800000D03*
%TD*%
D18*
%TO.C,R12*%
X203350000Y-106875000D03*
X205000000Y-106875000D03*
%TD*%
D26*
%TO.C,C3*%
X167350000Y-93425000D03*
X167350000Y-91875000D03*
%TD*%
D27*
%TO.C,D9*%
X174125000Y-122700000D03*
X174125000Y-121125000D03*
%TD*%
D14*
%TO.C,D4*%
X197375000Y-131750000D03*
X197375000Y-129650000D03*
%TD*%
D21*
%TO.C,J5*%
X200896572Y-133728428D03*
X203725000Y-130900000D03*
%TD*%
D18*
%TO.C,R18*%
X174925000Y-109975000D03*
X176575000Y-109975000D03*
%TD*%
D28*
%TO.C,C17*%
X175975000Y-107875000D03*
X174425000Y-107875000D03*
%TD*%
D18*
%TO.C,R13*%
X203312500Y-103200000D03*
X204962500Y-103200000D03*
%TD*%
D29*
%TO.C,C20*%
X183900000Y-116075000D03*
X183900000Y-117625000D03*
%TD*%
D16*
%TO.C,R15*%
X182000000Y-121250000D03*
X180350000Y-121250000D03*
%TD*%
D18*
%TO.C,R25*%
X171825000Y-111275000D03*
X173475000Y-111275000D03*
%TD*%
D16*
%TO.C,R23*%
X177275000Y-112800000D03*
X175625000Y-112800000D03*
%TD*%
D30*
%TO.C,U3*%
X179425000Y-110800000D03*
X179425000Y-111300000D03*
X179425000Y-111800000D03*
X179425000Y-112300000D03*
X179425000Y-112800000D03*
X179425000Y-113300000D03*
D31*
X180125000Y-114000000D03*
X180625000Y-114000000D03*
X181125000Y-114000000D03*
X181625000Y-114000000D03*
X182125000Y-114000000D03*
X182625000Y-114000000D03*
D30*
X183325000Y-113300000D03*
X183325000Y-112800000D03*
X183325000Y-112300000D03*
X183325000Y-111800000D03*
X183325000Y-111300000D03*
X183325000Y-110800000D03*
D31*
X182625000Y-110100000D03*
X182125000Y-110100000D03*
X181625000Y-110100000D03*
X181125000Y-110100000D03*
X180625000Y-110100000D03*
X180125000Y-110100000D03*
%TD*%
D32*
%TO.C,C5*%
X195325000Y-88800000D03*
X196875000Y-88800000D03*
%TD*%
D26*
%TO.C,C8*%
X165130000Y-115940000D03*
X165130000Y-114390000D03*
%TD*%
D13*
%TO.C,R19*%
X174150000Y-124700000D03*
X174150000Y-126350000D03*
%TD*%
D26*
%TO.C,C23*%
X185475000Y-107050000D03*
X185475000Y-105500000D03*
%TD*%
D22*
%TO.C,C11*%
X191000000Y-116850000D03*
X193950000Y-116850000D03*
%TD*%
D18*
%TO.C,R5*%
X199975000Y-94050000D03*
X201625000Y-94050000D03*
%TD*%
D32*
%TO.C,C22*%
X167725000Y-112200000D03*
X169275000Y-112200000D03*
%TD*%
D26*
%TO.C,C9*%
X177350000Y-122775000D03*
X177350000Y-121225000D03*
%TD*%
%TO.C,C18*%
X184100000Y-122000000D03*
X184100000Y-120450000D03*
%TD*%
D22*
%TO.C,C15*%
X190915000Y-126790000D03*
X193865000Y-126790000D03*
%TD*%
D33*
%TO.C,D6*%
X201387500Y-103200000D03*
X199812500Y-103200000D03*
%TD*%
D16*
%TO.C,R6*%
X190675000Y-104075000D03*
X189025000Y-104075000D03*
%TD*%
D28*
%TO.C,C4*%
X167900000Y-88800000D03*
X166350000Y-88800000D03*
%TD*%
D34*
%TO.C,L1*%
X177275000Y-128800000D03*
X180975000Y-128800000D03*
%TD*%
D18*
%TO.C,R4*%
X161550000Y-93800000D03*
X163200000Y-93800000D03*
%TD*%
D10*
%TO.C,SDA*%
X170350000Y-104900000D03*
%TD*%
D16*
%TO.C,R17*%
X175775000Y-105925000D03*
X174125000Y-105925000D03*
%TD*%
D10*
%TO.C,RX2*%
X194300000Y-101125000D03*
%TD*%
D16*
%TO.C,R2*%
X163150000Y-96650000D03*
X161500000Y-96650000D03*
%TD*%
D26*
%TO.C,C16*%
X173775000Y-116125000D03*
X173775000Y-114575000D03*
%TD*%
D35*
%TO.C,Q4*%
X202125000Y-127300000D03*
X200225000Y-127300000D03*
X201175000Y-129175000D03*
%TD*%
D36*
%TO.C,D3*%
X164350000Y-130300000D03*
X164350000Y-132400000D03*
%TD*%
D26*
%TO.C,C21*%
X183500000Y-107075000D03*
X183500000Y-105525000D03*
%TD*%
D37*
%TO.C,J4*%
X158453680Y-131153680D03*
X160575000Y-133275000D03*
%TD*%
D35*
%TO.C,Q3*%
X162625000Y-127300000D03*
X160725000Y-127300000D03*
X161675000Y-129175000D03*
%TD*%
D38*
%TO.C,D2*%
X195275000Y-85300000D03*
X197375000Y-85300000D03*
%TD*%
D10*
%TO.C,+5V*%
X186650000Y-121525000D03*
%TD*%
D29*
%TO.C,C19*%
X182225000Y-116050000D03*
X182225000Y-117600000D03*
%TD*%
D39*
%TO.C,J2*%
X201546572Y-84721572D03*
X204375000Y-87550000D03*
%TD*%
D40*
%TO.C,U4*%
X167575000Y-108600000D03*
X168225000Y-108600000D03*
X168875000Y-108600000D03*
X169525000Y-108600000D03*
X169525000Y-110200000D03*
X168875000Y-110200000D03*
X168225000Y-110200000D03*
X167575000Y-110200000D03*
%TD*%
D13*
%TO.C,R1*%
X169900000Y-91875000D03*
X169900000Y-93525000D03*
%TD*%
D18*
%TO.C,R11*%
X200225000Y-124050000D03*
X201875000Y-124050000D03*
%TD*%
D33*
%TO.C,D5*%
X201425000Y-106875000D03*
X199850000Y-106875000D03*
%TD*%
D13*
%TO.C,R21*%
X181375000Y-105475000D03*
X181375000Y-107125000D03*
%TD*%
D41*
%TO.C,U1*%
X172500000Y-84415000D03*
X172500000Y-85685000D03*
X172500000Y-86955000D03*
X172500000Y-88225000D03*
X172500000Y-89495000D03*
X172500000Y-90765000D03*
X172500000Y-92035000D03*
X172500000Y-93305000D03*
X172500000Y-94575000D03*
X172500000Y-95845000D03*
X172500000Y-97115000D03*
X172500000Y-98385000D03*
X172500000Y-99655000D03*
X172500000Y-100925000D03*
D42*
X175540000Y-102175000D03*
X176810000Y-102175000D03*
X178080000Y-102175000D03*
X179350000Y-102175000D03*
X180620000Y-102175000D03*
X181890000Y-102175000D03*
X183160000Y-102175000D03*
X184430000Y-102175000D03*
X185700000Y-102175000D03*
X186970000Y-102175000D03*
D41*
X190000000Y-100925000D03*
X190000000Y-99655000D03*
X190000000Y-98385000D03*
X190000000Y-97115000D03*
X190000000Y-95845000D03*
X190000000Y-94575000D03*
X190000000Y-93305000D03*
X190000000Y-92035000D03*
X190000000Y-90765000D03*
X190000000Y-89495000D03*
X190000000Y-88225000D03*
X190000000Y-86955000D03*
X190000000Y-85685000D03*
X190000000Y-84415000D03*
D43*
X179045000Y-90992500D03*
X179045000Y-92517500D03*
X179807500Y-90230000D03*
X179807500Y-91755000D03*
X179807500Y-93280000D03*
X180570000Y-90992500D03*
D44*
X180570000Y-91755000D03*
D43*
X180570000Y-92517500D03*
X181332500Y-90230000D03*
X181332500Y-91755000D03*
X181332500Y-93280000D03*
X182095000Y-90992500D03*
X182095000Y-92517500D03*
%TD*%
D32*
%TO.C,C6*%
X160825000Y-117550000D03*
X162375000Y-117550000D03*
%TD*%
D18*
%TO.C,R9*%
X200225000Y-120800000D03*
X201875000Y-120800000D03*
%TD*%
D10*
%TO.C,SCL*%
X171950000Y-107575000D03*
%TD*%
D38*
%TO.C,D1*%
X164525000Y-85300000D03*
X166625000Y-85300000D03*
%TD*%
D26*
%TO.C,C7*%
X194375000Y-131450000D03*
X194375000Y-129900000D03*
%TD*%
D15*
%TO.C,C14*%
X171385000Y-116240000D03*
X171385000Y-114340000D03*
%TD*%
D22*
%TO.C,C12*%
X191000000Y-120200000D03*
X193950000Y-120200000D03*
%TD*%
D13*
%TO.C,R24*%
X177375000Y-114625000D03*
X177375000Y-116275000D03*
%TD*%
D33*
%TO.C,D8*%
X201300000Y-99350000D03*
X199725000Y-99350000D03*
%TD*%
D13*
%TO.C,R20*%
X178865000Y-105475000D03*
X178865000Y-107125000D03*
%TD*%
%TO.C,R22*%
X165300000Y-109100000D03*
X165300000Y-110750000D03*
%TD*%
D32*
%TO.C,C1*%
X161550000Y-98275000D03*
X163100000Y-98275000D03*
%TD*%
D45*
%TO.C,C2*%
X194350000Y-107625000D03*
X194350000Y-110575000D03*
%TD*%
D17*
%TO.C,Q1*%
X161425000Y-91237500D03*
X163325000Y-91237500D03*
X162375000Y-89362500D03*
%TD*%
M02*
